Release info:

General
Format                                   : Matroska
Format version                           : Version 2
File size                                : 648 MiB
Duration                                 : 1h 38mn
Overall bit rate                         : 917 Kbps

Video
ID                                       : 1
Format                                   : MPEG-4 Visual
Format profile                           : Advanced Simple@L5
Format settings, BVOP                    : Yes
Format settings, QPel                    : No
Format settings, GMC                     : No warppoints
Format settings, Matrix                  : Default (H.263)
Codec ID                                 : V_MS/VFW/FOURCC / XVID
Codec ID/Hint                            : XviD
Duration                                 : 1h 38mn
Bit rate                                 : 771 Kbps
Width                                    : 640 pixels
Height                                   : 320 pixels
Display aspect ratio                     : 2.000
Frame rate mode                          : Constant
Frame rate                               : 29.970 fps
Color space                              : YUV
Chroma subsampling                       : 4:2:0
Bit depth                                : 8 bits
Scan type                                : Progressive
Compression mode                         : Lossy
Bits/(Pixel*Frame)                       : 0.126
Stream size                              : 545 MiB (84%)
Language                                 : English
Default                                  : Yes
Forced                                   : No

Audio
ID                                       : 2
Format                                   : MPEG Audio
Format version                           : Version 1
Format profile                           : Layer 3
Mode                                     : Joint stereo
Mode extension                           : MS Stereo
Muxing mode                              : Header stripping
Codec ID                                 : A_MPEG/L3
Codec ID/Hint                            : MP3
Duration                                 : 1h 38mn
Bit rate mode                            : Constant
Bit rate                                 : 128 Kbps
Channel(s)                               : 2 channels
Sampling rate                            : 44.1 KHz
Compression mode                         : Lossy
Stream size                              : 90.5 MiB (14%)
Language                                 : English
Default                                  : Yes
Forced                                   : No



Source:
credit to original movie ripper MATiNE (Thanks)

IMDB Info:

The leader of a drug cartel busts out of a courthouse and speeds to the Mexican border, where the only thing in his path is a sheriff and his inexperienced staff.

Director: Jee-woon Kim
Writers: Andrew Knauer (screenplay), Jeffrey Nachmanoff (rewrite), 
Stars: Arnold Schwarzenegger, Forest Whitaker and Johnny Knoxville

Genres: Action | Crime | Thriller
 
http://www.imdb.com/title/tt1549920/

Screen Shot:
 
http://www.shotpix.com/images/47064886927117110264.png 
http://www.shotpix.com/images/98135319329587758748.png 
http://www.shotpix.com/images/36339163568950415251.png 
http://www.shotpix.com/images/56613534278995662058.png